<svg width="112" height="98" viewBox="0 0 112 98" fill="none" xmlns="http://www.w3.org/2000/svg">
<path d="M111.879 36.8151C111.66 34.4494 109.251 33.379 107.062 35.124C107.062 35.124 101.788 39.3608 98.6588 41.5916C98.2574 41.8794 97.6826 41.5736 97.6826 41.0788V22.198C97.6826 20.0841 96.4236 18.1411 94.4803 17.2506L57.7766 0.492576C56.2986 -0.173067 54.6017 -0.164072 53.1419 0.519562L17.2502 17.1517C15.1792 18.1141 13.8563 20.165 13.8563 22.4138C13.8563 22.4138 13.8563 41.2767 13.8563 41.3037C13.8563 42.707 10.8912 39.8195 9.91499 39.01C8.62858 37.9485 7.59763 37.04 6.25648 35.7987C5.28027 34.8902 4.38618 34.0536 2.9538 34.2785C1.76775 34.4674 0.72767 35.3129 0.499584 36.5003C0.180263 38.1374 0.335361 37.1749 0.171139 38.866C-0.0569477 41.1598 -0.0478231 43.4086 0.143769 45.6214C1.64002 77.4284 30.68 102.255 64.2269 97.3887C88.0939 93.9256 107.062 75.4315 110.83 51.945C111.587 47.2046 112.289 41.3127 111.879 36.8151ZM56.0614 7.75169L89.5171 23.0255C89.9916 23.2414 90.2926 23.7091 90.2926 24.2129V45.9003C90.2926 46.404 90.0007 46.8717 89.5354 47.0876C83.0212 50.128 75.7498 53.1954 68.1865 54.3647C67.2559 54.5087 66.453 53.6901 66.672 52.7816C67.1556 50.7667 67.4475 48.338 67.5479 45.4775C67.5479 39.6036 66.672 35.3939 64.9203 32.8662C63.1595 30.3296 60.0757 29.0703 55.6417 29.0703C51.2077 29.0703 48.1605 30.2936 46.5 32.7403C44.8396 35.187 44.0093 39.2708 44.0093 44.9828C44.0093 48.0051 44.2192 50.5418 44.6389 52.6017C44.8213 53.5192 44.0367 54.3288 43.1061 54.1668C35.4333 52.8176 28.2349 50.2989 21.9397 46.7548C21.5291 46.5209 21.2737 46.0802 21.2737 45.6124V24.1859C21.2737 23.6732 21.5748 23.2144 22.0401 22.9985L54.9575 7.7427C55.3133 7.58078 55.7239 7.58078 56.0797 7.7427L56.0614 7.75169ZM12.4148 49.7232C19.3486 54.7695 27.5689 58.5205 36.5007 60.7693C37.7871 61.0931 37.8693 62.8472 36.6102 63.279C28.983 65.9146 20.708 67.8305 15.2066 66.913C14.8234 66.8501 14.495 66.6162 14.3125 66.2834C11.767 61.8847 9.92411 57.0363 8.92965 51.9001C8.54647 49.9391 10.7817 48.5359 12.4148 49.7232ZM55.8151 90.1206C41.9839 90.1206 29.503 84.2827 20.781 74.9817C21.1551 74.9997 21.5383 75.0087 21.9123 75.0087C26.0544 75.0087 30.3333 74.0912 34.6031 72.7239C35.0592 72.58 35.561 72.6789 35.9168 73.0028C42.5313 78.9396 51.226 84.0219 60.4224 87.4041C61.7362 87.8898 61.4808 89.8058 60.0849 89.9317C58.6799 90.0576 57.2566 90.1206 55.8151 90.1206ZM90.8492 74.9817C90.6576 75.1886 90.466 75.3865 90.2653 75.5934C87.5556 78.3819 84.4901 80.8466 81.16 82.9155C80.9046 83.0774 80.5944 83.1493 80.2933 83.1133C67.3654 81.935 55.4958 77.4824 46.4271 70.1333C45.6607 69.5126 45.8249 68.3163 46.7281 67.9115C47.7682 67.4437 48.7991 66.976 49.821 66.5172C51.9011 65.5727 53.8718 64.6822 55.7968 63.8547C55.7968 63.8547 55.7968 63.8547 55.806 63.8547C55.806 63.8547 55.806 63.8547 55.8151 63.8547C57.7401 64.6822 59.7108 65.5727 61.791 66.5172C70.659 70.5381 80.5214 75.0087 89.7087 75.0087C90.0828 75.0087 90.466 74.9997 90.84 74.9817M102.144 54.4097C101.104 58.5295 99.5073 62.4424 97.4454 66.0585C97.2447 66.4093 96.8889 66.6522 96.4783 66.7061C91.1137 67.3628 83.2037 65.7526 75.8684 63.4319C74.582 63.0271 74.6642 61.2101 75.9779 60.9042C84.2803 58.9973 92.0535 55.9749 98.8778 52.017C100.547 51.0455 102.6 52.5567 102.126 54.4097H102.144Z" fill="#F7F7F7"/>
</svg>
