<svg width="194" height="49" viewBox="0 0 194 49" fill="none" xmlns="http://www.w3.org/2000/svg">
<path d="M55.7647 18.3984C55.6627 17.2082 54.4589 16.6836 53.3571 17.5511C53.3571 17.5511 50.7251 19.6694 49.1745 20.7789C48.9704 20.9201 48.6848 20.7789 48.6848 20.5166V11.0754C48.6848 10.0263 48.0523 9.03782 47.0933 8.59399L28.7917 0.242084C28.0571 -0.0806948 27.2002 -0.0806948 26.4861 0.242084L8.59247 8.57382C7.55191 9.05799 6.89901 10.0868 6.89901 11.2166V20.6579C6.89901 21.3639 5.42998 19.9114 4.9403 19.508C4.3078 18.9834 3.77732 18.5195 3.12441 17.8941C2.63474 17.4502 2.18587 17.0266 1.47175 17.1275C0.880062 17.2283 0.369981 17.652 0.247562 18.237C0.0843364 19.0641 0.165949 18.58 0.0843364 19.4273C-0.0380828 20.5772 -0.0176796 21.7069 0.0843364 22.7963C0.839255 38.6931 15.3051 51.1201 32.0358 48.6791C43.9308 46.9442 53.3979 37.7046 55.275 25.9434C55.6627 23.5629 56.0095 20.6175 55.8055 18.3782L55.7647 18.3984ZM27.9347 3.87335L44.6245 11.5192C44.849 11.62 45.0122 11.8621 45.0122 12.1244V22.9778C45.0122 23.2401 44.8694 23.462 44.6245 23.5629C41.3804 25.0759 37.7487 26.6091 33.9741 27.1941C33.5048 27.2748 33.1171 26.8512 33.2192 26.4074C33.464 25.3987 33.6068 24.1883 33.6476 22.7559C33.6476 19.8106 33.2191 17.7125 32.3418 16.4416C31.4645 15.1706 29.9342 14.5452 27.7103 14.5452C25.4863 14.5452 23.9765 15.1504 23.1604 16.381C22.3238 17.6116 21.9158 19.6492 21.9158 22.5138C21.9158 24.0269 22.0178 25.2978 22.2218 26.3267C22.3238 26.7907 21.9158 27.1941 21.4465 27.1134C17.6311 26.4477 14.0401 25.1768 10.898 23.4015C10.694 23.2804 10.5716 23.0585 10.5716 22.8366V12.1244C10.5716 11.8621 10.7144 11.6402 10.9592 11.5394L27.3838 3.87335C27.5675 3.79265 27.7715 3.79265 27.9347 3.87335ZM6.16449 24.8742C9.61263 27.3959 13.7137 29.272 18.182 30.4018C18.8145 30.5631 18.8553 31.4508 18.2432 31.6525C14.4482 32.9638 10.3063 33.9322 7.57231 33.4682C7.38869 33.4278 7.22546 33.3269 7.12344 33.1454C5.85844 30.9464 4.9403 28.5256 4.43022 25.9434C4.24659 24.9549 5.34836 24.269 6.16449 24.854V24.8742ZM27.8123 45.068C20.916 45.068 14.693 42.1428 10.3472 37.5029C10.5308 37.5029 10.7144 37.5029 10.9184 37.5029C12.9792 37.5029 15.1215 37.0389 17.2434 36.353C17.4679 36.2723 17.7127 36.3328 17.8963 36.4942C21.2017 39.4597 25.5271 42.0016 30.1179 43.6962C30.7708 43.9383 30.6483 44.9066 29.9546 44.9672C29.2609 45.0277 28.5468 45.068 27.8327 45.068H27.8123ZM45.2774 37.5029C45.1754 37.6038 45.0938 37.7046 44.9918 37.8055C43.6452 39.1975 42.1149 40.4281 40.4419 41.4569C40.3195 41.5376 40.1562 41.578 40.0134 41.5578C33.566 40.9728 27.6491 38.7335 23.1196 35.0619C22.7319 34.7593 22.8135 34.1541 23.2624 33.9523C23.7725 33.7102 24.3029 33.4883 24.813 33.2463C25.8536 32.7823 26.8329 32.3384 27.7919 31.9148C28.7508 32.3183 29.7302 32.7823 30.7708 33.2463C35.1983 35.2636 40.1154 37.5029 44.6857 37.5029C44.8694 37.5029 45.053 37.5029 45.257 37.5029M50.8883 27.2143C50.3782 29.272 49.5825 31.2289 48.542 33.0445C48.4399 33.2261 48.2563 33.3471 48.0523 33.3673C45.3795 33.6901 41.4416 32.8831 37.7691 31.7332C37.1366 31.5315 37.1774 30.6237 37.8303 30.4623C41.9721 29.5141 45.8487 28.0011 49.2561 26.0241C50.0926 25.5399 51.1128 26.2863 50.8679 27.2143H50.8883Z" fill="white"/>
<path d="M69.7 41.2351C69.3531 41.2351 69.0879 40.9729 69.0879 40.6299V11.136C69.0879 9.56243 69.3123 8.55374 69.7612 8.08975C70.2101 7.62575 71.271 7.38367 72.9441 7.38367H83.1865C83.3497 7.38367 83.513 7.46436 83.615 7.60558L97.6932 30.0993C97.9584 30.5431 98.6521 30.3413 98.6521 29.837V7.98888C98.6521 7.64592 98.9174 7.38367 99.2642 7.38367H106.018C106.365 7.38367 106.671 7.68627 106.63 8.02923C106.63 8.08975 106.63 8.15027 106.63 8.21079C106.609 8.67478 106.589 9.1993 106.589 9.74399V37.9468C106.589 39.4195 106.263 40.3475 105.63 40.6904C104.998 41.0536 103.814 41.2351 102.1 41.2351H92.878C92.674 41.2351 92.47 41.1343 92.3476 40.9527L78.1877 18.2573C77.8613 17.7328 77.0451 17.9749 77.0451 18.5801V40.6501C77.0451 40.993 76.7799 41.2553 76.4331 41.2553H69.6592L69.7 41.2351Z" fill="white"/>
<path d="M119.77 41.5175C116.73 41.5175 114.628 40.9324 113.465 39.7825C112.282 38.6125 111.71 36.7161 111.71 34.0734L111.772 15.7557C111.772 15.4127 112.037 15.1504 112.384 15.1504H121.28C121.626 15.1504 121.892 15.4127 121.892 15.7557V33.6699C121.892 35.0619 122.096 36.0504 122.545 36.6556C122.973 37.2608 123.687 37.5634 124.687 37.5634C125.279 37.5634 125.768 37.5231 126.176 37.4222C126.564 37.3415 126.931 37.6239 126.931 38.0072V40.4079C126.931 40.6903 126.727 40.9526 126.442 40.993C126.299 41.0131 126.115 41.0535 125.911 41.0938C125.421 41.1745 124.687 41.2754 123.748 41.3561C122.789 41.4368 121.484 41.4973 119.811 41.4973L119.77 41.5175ZM116.913 12.4673C115.322 12.4673 114.2 12.2858 113.526 11.9227C112.853 11.5595 112.506 10.8938 112.506 9.94564C112.506 8.99747 112.853 8.31157 113.567 7.92827C114.261 7.54497 115.424 7.3634 117.056 7.3634C118.586 7.40375 119.688 7.60549 120.341 7.96861C120.994 8.33174 121.3 8.99747 121.259 9.94564C121.259 10.914 120.953 11.5595 120.341 11.9227C119.729 12.2858 118.586 12.4673 116.913 12.4673Z" fill="white"/>
<path d="M127.237 27.8195C127.237 24.1883 127.788 22.3525 128.869 20.3553C129.95 18.3581 131.501 17.0064 133.521 16.26C135.541 15.5136 137.887 15.1505 140.621 15.1505C141.519 15.1505 142.478 15.1908 143.498 15.2917C144.518 15.3724 145.518 15.5136 146.477 15.6548C147.456 15.8162 148.313 16.0179 149.048 16.26C149.231 16.3205 149.395 16.381 149.558 16.4416C150.068 16.6433 150.068 17.3696 149.558 17.5713L149.17 17.7125C148.762 17.8739 148.334 17.5713 148.334 17.1476V7.96861C148.334 7.62566 148.599 7.3634 148.946 7.3634H157.76C158.107 7.3634 158.372 7.62566 158.372 8.93695L158.311 28.7273C158.311 30.8052 158.046 33.2261 157.495 35.0417C156.944 36.8574 156.067 38.209 154.822 39.137C153.577 40.0448 151.904 40.65 149.803 40.9526C147.701 41.235 145.11 41.3964 142.029 41.3964C139.173 41.3964 136.806 41.2149 134.908 40.8517C133.011 40.4886 131.501 39.8229 130.399 38.8344C129.298 37.8459 128.481 36.4942 127.992 34.7391C127.502 33.0042 127.237 30.6842 127.237 27.8195ZM142.498 36.2118C143.723 36.2118 144.722 36.0907 145.477 35.8688C146.253 35.6469 146.844 35.2636 147.232 34.7189C147.64 34.1742 147.926 33.448 148.089 32.4998C148.252 31.5517 148.334 30.3614 148.334 28.8686L148.273 21.5052C148.273 21.1824 148.007 20.9201 147.681 20.9C147.518 20.9 147.334 20.9 147.15 20.8798C146.681 20.8596 146.171 20.8394 145.661 20.8193C145.13 20.7991 144.641 20.7789 144.131 20.7789C142.417 20.7789 141.07 21.0008 140.091 21.4245C139.111 21.8481 138.438 22.6349 138.03 23.7646C137.622 24.9145 137.418 25.6609 137.418 27.9406C137.418 30.2202 137.581 32.0157 137.928 33.1656C138.275 34.3356 138.826 35.1224 139.581 35.5461C140.356 35.9697 141.315 36.1916 142.498 36.1916V36.2118Z" fill="white"/>
<path d="M178 41.6385C175.429 41.6385 173.144 41.4569 171.165 41.0938C169.186 40.7307 167.513 40.0649 166.187 39.0764C164.861 38.0879 163.84 36.6959 163.167 34.9005C162.494 33.105 162.147 31.713 162.147 28.8685C162.147 26.024 162.494 23.6839 163.167 21.8683C163.84 20.0526 164.84 18.6606 166.187 17.6923C167.513 16.7038 169.186 16.0381 171.165 15.6749C173.144 15.3118 175.429 15.1302 178 15.1302C180.571 15.1302 182.897 15.3118 184.835 15.6749C186.774 16.0381 188.406 16.7038 189.712 17.6923C191.018 18.6808 192.017 20.0728 192.691 21.8683C193.364 23.6839 193.711 26.0039 193.711 28.8685C193.711 31.7332 193.364 33.105 192.691 34.9408C192.017 36.7766 191.018 38.1686 189.671 39.1168C188.345 40.0851 186.692 40.7307 184.754 41.0938C182.815 41.4569 180.551 41.6385 177.98 41.6385H178ZM178 36.7565C179.265 36.7565 180.285 36.5144 181.081 36.0504C181.877 35.5864 182.469 34.7189 182.877 33.448C183.285 32.177 183.489 31.2894 183.489 28.8887C183.489 26.488 183.285 24.6321 182.877 23.3611C182.469 22.0902 181.877 21.2227 181.081 20.7587C180.285 20.2947 179.265 20.0526 178 20.0526C176.817 20.0526 175.817 20.2947 174.96 20.7587C174.103 21.2227 173.45 22.0902 173.022 23.3611C172.593 24.6321 172.369 26.4679 172.369 28.8887C172.369 31.3096 172.573 32.177 173.022 33.448C173.45 34.7189 174.103 35.5864 174.96 36.0504C175.817 36.5144 176.837 36.7565 178 36.7565Z" fill="white"/>
</svg>
