<svg width="170" height="43" viewBox="0 0 170 43" fill="none" xmlns="http://www.w3.org/2000/svg">
<g clip-path="url(#clip0_637_20)">
<path d="M48.9501 16.1449C48.8606 15.1005 47.8042 14.6402 46.8374 15.4014C46.8374 15.4014 44.5278 17.2602 43.167 18.2338C42.988 18.3578 42.7373 18.2338 42.7373 18.0037V9.71881C42.7373 8.79827 42.1823 7.93084 41.3408 7.54138L25.2808 0.212433C24.6362 -0.070811 23.8843 -0.070811 23.2576 0.212433L7.55567 7.52367C6.64255 7.94854 6.06962 8.85138 6.06962 9.84273V18.1276C6.06962 18.7472 4.78052 17.4726 4.35082 17.1186C3.79579 16.6583 3.33028 16.2511 2.75735 15.7023C2.32765 15.3129 1.93376 14.9411 1.30711 15.0296C0.787894 15.1182 0.34029 15.4899 0.232865 16.0033C0.0896316 16.7291 0.161248 16.3042 0.0896316 17.0478C-0.0177933 18.0568 0.000110826 19.0482 0.0896316 20.0041C0.752086 33.9539 13.4461 44.8588 28.1275 42.7168C38.5657 41.1943 46.8732 33.0865 48.5204 22.7657C48.8606 20.6768 49.1649 18.0922 48.9859 16.1272L48.9501 16.1449ZM24.5288 3.39893L39.1744 10.1083C39.3714 10.1968 39.5146 10.4092 39.5146 10.6394V20.1634C39.5146 20.3936 39.3893 20.5883 39.1744 20.6768C36.3276 22.0045 33.1407 23.3499 29.8284 23.8633C29.4166 23.9341 29.0765 23.5624 29.166 23.1729C29.3808 22.2878 29.5062 21.2256 29.542 19.9687C29.542 17.3841 29.166 15.543 28.3961 14.4277C27.6262 13.3125 26.2834 12.7637 24.3319 12.7637C22.3803 12.7637 21.0554 13.2948 20.3392 14.3746C19.6052 15.4545 19.2471 17.2425 19.2471 19.7563C19.2471 21.084 19.3366 22.1993 19.5156 23.1021C19.6052 23.5093 19.2471 23.8633 18.8353 23.7925C15.4872 23.2083 12.3361 22.093 9.57884 20.5352C9.39979 20.429 9.29237 20.2343 9.29237 20.0395V10.6394C9.29237 10.4092 9.4177 10.2145 9.63255 10.126L24.0454 3.39893C24.2065 3.32812 24.3856 3.32812 24.5288 3.39893ZM5.42507 21.8275C8.45087 24.0403 12.0496 25.6867 15.9706 26.6781C16.5257 26.8197 16.5615 27.5986 16.0243 27.7756C12.6942 28.9263 9.05962 29.776 6.66046 29.3689C6.49932 29.3335 6.35609 29.245 6.26657 29.0856C5.15651 27.156 4.35082 25.0317 3.90322 22.7657C3.74208 21.8983 4.7089 21.2964 5.42507 21.8098V21.8275ZM24.4214 39.548C18.3698 39.548 12.909 36.9811 9.09542 32.9094C9.25656 32.9094 9.4177 32.9094 9.59674 32.9094C11.4051 32.9094 13.285 32.5023 15.147 31.9004C15.344 31.8296 15.5588 31.8827 15.72 32.0243C18.6204 34.6266 22.4161 36.8571 26.4446 38.3442C27.0175 38.5566 26.9101 39.4063 26.3013 39.4594C25.6926 39.5126 25.0659 39.548 24.4393 39.548H24.4214ZM39.7473 32.9094C39.6578 32.9979 39.5862 33.0865 39.4967 33.175C38.315 34.3965 36.9722 35.4763 35.5041 36.3792C35.3966 36.45 35.2534 36.4854 35.1281 36.4677C29.4704 35.9543 24.2782 33.9893 20.3034 30.7674C19.9632 30.5018 20.0349 29.9708 20.4288 29.7937C20.8764 29.5813 21.3419 29.3866 21.7895 29.1741C22.7026 28.767 23.562 28.3775 24.4035 28.0058C25.245 28.3598 26.1044 28.767 27.0175 29.1741C30.9027 30.9444 35.2176 32.9094 39.2281 32.9094C39.3893 32.9094 39.5504 32.9094 39.7294 32.9094M44.671 23.881C44.2234 25.6867 43.5251 27.4039 42.612 28.9971C42.5225 29.1564 42.3614 29.2627 42.1823 29.2804C39.8369 29.5636 36.3814 28.8555 33.1586 27.8464C32.6036 27.6694 32.6394 26.8728 33.2123 26.7312C36.8469 25.8991 40.2487 24.5714 43.2387 22.8366C43.9727 22.4117 44.8679 23.0667 44.6531 23.881H44.671Z" fill="url(#paint0_linear_637_20)"/>
<path d="M61.1785 36.1845C60.8741 36.1845 60.6414 35.9543 60.6414 35.6534V9.77196C60.6414 8.39115 60.8383 7.50601 61.2322 7.09884C61.6261 6.69168 62.5571 6.47925 64.0252 6.47925H73.0131C73.1564 6.47925 73.2996 6.55006 73.3891 6.67398L85.743 26.4126C85.9757 26.802 86.5845 26.625 86.5845 26.1824V7.01033C86.5845 6.70938 86.8172 6.47925 87.1216 6.47925H93.0479C93.3523 6.47925 93.6208 6.74479 93.585 7.04574C93.585 7.09884 93.585 7.15195 93.585 7.20506C93.5671 7.61222 93.5492 8.0725 93.5492 8.55047V33.2989C93.5492 34.5912 93.2627 35.4056 92.7077 35.7065C92.1527 36.0252 91.1142 36.1845 89.6103 36.1845H81.5176C81.3386 36.1845 81.1595 36.096 81.0521 35.9366L68.6266 16.021C68.3402 15.5608 67.624 15.7732 67.624 16.3043V35.6711C67.624 35.972 67.3912 36.2022 67.0869 36.2022H61.1427L61.1785 36.1845Z" fill="#06307B"/>
<path d="M105.115 36.4323C102.448 36.4323 100.604 35.9189 99.583 34.9099C98.5445 33.8831 98.0432 32.2191 98.0432 29.9L98.0969 13.8259C98.0969 13.5249 98.3297 13.2948 98.6341 13.2948H106.44C106.745 13.2948 106.977 13.5249 106.977 13.8259V29.5459C106.977 30.7674 107.156 31.6349 107.55 32.166C107.926 32.697 108.553 32.9626 109.43 32.9626C109.949 32.9626 110.379 32.9272 110.737 32.8387C111.077 32.7678 111.4 33.0157 111.4 33.352V35.4587C111.4 35.7065 111.221 35.9366 110.97 35.972C110.845 35.9897 110.684 36.0252 110.505 36.0606C110.075 36.1314 109.43 36.2199 108.607 36.2907C107.765 36.3615 106.619 36.4146 105.151 36.4146L105.115 36.4323ZM102.609 10.9403C101.212 10.9403 100.228 10.781 99.6367 10.4624C99.0459 10.1437 98.7415 9.55953 98.7415 8.7275C98.7415 7.89547 99.0458 7.29358 99.6725 6.95722C100.281 6.62087 101.302 6.46155 102.734 6.46155C104.077 6.49695 105.044 6.67398 105.617 6.99263C106.19 7.31128 106.458 7.89547 106.422 8.7275C106.422 9.57723 106.154 10.1437 105.617 10.4624C105.08 10.781 104.077 10.9403 102.609 10.9403Z" fill="#06307B"/>
<path d="M111.668 24.4121C111.668 21.2256 112.152 19.6147 113.101 17.8621C114.049 16.1096 115.41 14.9235 117.183 14.2685C118.955 13.6135 121.014 13.2948 123.413 13.2948C124.201 13.2948 125.043 13.3302 125.938 13.4187C126.833 13.4895 127.71 13.6135 128.552 13.7374C129.411 13.879 130.163 14.056 130.808 14.2685C130.969 14.3216 131.112 14.3747 131.255 14.4278C131.703 14.6048 131.703 15.2421 131.255 15.4191L130.915 15.5431C130.557 15.6847 130.181 15.4191 130.181 15.0474V6.99263C130.181 6.69168 130.414 6.46155 130.718 6.46155H138.453C138.757 6.46155 138.99 6.69168 138.99 7.84236L138.936 25.2088C138.936 27.0322 138.703 29.1565 138.22 30.7497C137.737 32.343 136.967 33.5291 135.875 34.3434C134.782 35.14 133.314 35.6711 131.47 35.9366C129.626 36.1845 127.352 36.3261 124.649 36.3261C122.142 36.3261 120.065 36.1668 118.4 35.8481C116.735 35.5295 115.41 34.9453 114.443 34.0779C113.477 33.2104 112.76 32.0243 112.331 30.4842C111.901 28.9618 111.668 26.9259 111.668 24.4121ZM125.061 31.7765C126.135 31.7765 127.012 31.6703 127.675 31.4755C128.355 31.2808 128.874 30.9445 129.214 30.4665C129.572 29.9885 129.823 29.3512 129.966 28.5192C130.109 27.6872 130.181 26.6427 130.181 25.3327L130.127 18.8712C130.127 18.5879 129.895 18.3578 129.608 18.3401C129.465 18.3401 129.304 18.3401 129.143 18.3224C128.731 18.3047 128.283 18.287 127.836 18.2693C127.37 18.2516 126.94 18.2339 126.493 18.2339C124.989 18.2339 123.807 18.4286 122.948 18.8004C122.088 19.1721 121.498 19.8625 121.14 20.8539C120.781 21.8629 120.602 22.518 120.602 24.5184C120.602 26.5188 120.746 28.0943 121.05 29.1034C121.354 30.1301 121.838 30.8205 122.5 31.1923C123.181 31.5641 124.022 31.7588 125.061 31.7588V31.7765Z" fill="#06307B"/>
<path d="M156.214 36.5385C153.958 36.5385 151.953 36.3792 150.216 36.0606C148.479 35.7419 147.011 35.1577 145.847 34.2903C144.683 33.4228 143.788 32.2013 143.197 30.6258C142.607 29.0503 142.302 27.8288 142.302 25.3327C142.302 22.8366 142.607 20.7831 143.197 19.1898C143.788 17.5966 144.666 16.3751 145.847 15.5254C147.011 14.6579 148.479 14.0737 150.216 13.7551C151.953 13.4364 153.958 13.2771 156.214 13.2771C158.47 13.2771 160.511 13.4364 162.212 13.7551C163.913 14.0737 165.345 14.6579 166.491 15.5254C167.637 16.3928 168.514 17.6143 169.105 19.1898C169.696 20.7831 170 22.8189 170 25.3327C170 27.8465 169.696 29.0503 169.105 30.6612C168.514 32.2722 167.637 33.4936 166.455 34.3257C165.291 35.1754 163.841 35.7419 162.14 36.0606C160.439 36.3792 158.452 36.5385 156.196 36.5385H156.214ZM156.214 32.2545C157.324 32.2545 158.219 32.042 158.917 31.6349C159.616 31.2277 160.135 30.4665 160.493 29.3512C160.851 28.2359 161.03 27.457 161.03 25.3504C161.03 23.2438 160.851 21.6151 160.493 20.4998C160.135 19.3846 159.616 18.6233 158.917 18.2162C158.219 17.809 157.324 17.5966 156.214 17.5966C155.175 17.5966 154.298 17.809 153.546 18.2162C152.794 18.6233 152.221 19.3846 151.845 20.4998C151.469 21.6151 151.272 23.226 151.272 25.3504C151.272 27.4747 151.451 28.2359 151.845 29.3512C152.221 30.4665 152.794 31.2277 153.546 31.6349C154.298 32.042 155.193 32.2545 156.214 32.2545Z" fill="#06307B"/>
</g>
<defs>
<linearGradient id="paint0_linear_637_20" x1="0.000110828" y1="21.5088" x2="49.0217" y2="21.5088" gradientUnits="userSpaceOnUse">
<stop stop-color="#06307B"/>
<stop offset="0.07" stop-color="#252867"/>
<stop offset="0.16" stop-color="#4D1E4D"/>
<stop offset="0.27" stop-color="#6F1638"/>
<stop offset="0.38" stop-color="#8B0F26"/>
<stop offset="0.5" stop-color="#A10A19"/>
<stop offset="0.63" stop-color="#B0060F"/>
<stop offset="0.78" stop-color="#B90409"/>
<stop offset="1" stop-color="#BC0408"/>
</linearGradient>
<clipPath id="clip0_637_20">
<rect width="170" height="43" fill="white"/>
</clipPath>
</defs>
</svg>
