<svg width="1440" height="9" viewBox="0 0 1440 9" fill="none" xmlns="http://www.w3.org/2000/svg">
<g clip-path="url(#clip0_16_392)">
<path d="M720.655 6.81918L714.146 0.428349C713.564 -0.143434 712.106 -0.143434 711.524 0.428349L705.954 5.89644C705.551 6.2934 704.54 6.2934 704.136 5.89644L698.567 0.428349C697.985 -0.143434 696.527 -0.143434 695.945 0.428349L690.375 5.89644C689.972 6.2934 688.961 6.2934 688.557 5.89644L682.988 0.428349C682.406 -0.143434 680.948 -0.143434 680.366 0.428349L674.796 5.89644C674.393 6.2934 673.382 6.2934 672.978 5.89644L667.409 0.428349C666.827 -0.143434 665.369 -0.143434 664.787 0.428349L659.217 5.89644C658.814 6.2934 657.803 6.2934 657.399 5.89644L651.83 0.428349C651.248 -0.143434 649.79 -0.143434 649.208 0.428349L643.638 5.89644C643.235 6.2934 642.224 6.2934 641.82 5.89644L636.251 0.428349C635.669 -0.143434 634.211 -0.143434 633.629 0.428349L628.059 5.89644C627.656 6.2934 626.645 6.2934 626.241 5.89644L620.672 0.428349C620.09 -0.143434 618.632 -0.143434 618.05 0.428349L612.48 5.89644C612.077 6.2934 611.066 6.2934 610.662 5.89644L605.093 0.428349C604.511 -0.143434 603.053 -0.143434 602.471 0.428349L596.901 5.89644C596.498 6.2934 595.487 6.2934 595.083 5.89644L589.514 0.428349C588.932 -0.143434 587.473 -0.143434 586.891 0.428349L581.322 5.89644C580.919 6.2934 579.908 6.2934 579.504 5.89644L573.935 0.428349C573.353 -0.143434 571.894 -0.143434 571.312 0.428349L565.743 5.89644C565.34 6.2934 564.329 6.2934 563.925 5.89644L558.356 0.428349C557.774 -0.143434 556.315 -0.143434 555.733 0.428349L550.164 5.89644C549.761 6.2934 548.75 6.2934 548.346 5.89644L542.777 0.428349C542.195 -0.143434 540.736 -0.143434 540.154 0.428349L534.585 5.89644C534.182 6.2934 533.171 6.2934 532.767 5.89644L527.198 0.428349C526.616 -0.143434 525.157 -0.143434 524.575 0.428349L519.006 5.89644C518.603 6.2934 517.592 6.2934 517.188 5.89644L511.619 0.428349C511.037 -0.143434 509.578 -0.143434 508.996 0.428349L503.427 5.89644C503.024 6.2934 502.013 6.2934 501.609 5.89644L496.04 0.428349C495.458 -0.143434 493.999 -0.143434 493.417 0.428349L487.848 5.89644C487.445 6.2934 486.434 6.2934 486.03 5.89644L480.461 0.428349C479.879 -0.143434 478.42 -0.143434 477.838 0.428349L472.269 5.89644C471.866 6.2934 470.855 6.2934 470.451 5.89644L464.882 0.428349C464.3 -0.143434 462.841 -0.143434 462.259 0.428349L456.69 5.89644C456.286 6.2934 455.276 6.2934 454.872 5.89644L449.303 0.428349C448.721 -0.143434 447.262 -0.143434 446.68 0.428349L441.111 5.89644C440.707 6.2934 439.697 6.2934 439.293 5.89644L433.724 0.428349C433.142 -0.143434 431.683 -0.143434 431.101 0.428349L425.532 5.89644C425.128 6.2934 424.118 6.2934 423.714 5.89644L418.145 0.428349C417.563 -0.143434 416.104 -0.143434 415.522 0.428349L409.953 5.89644C409.549 6.2934 408.538 6.2934 408.135 5.89644L402.566 0.428349C401.984 -0.143434 400.525 -0.143434 399.943 0.428349L394.374 5.89644C393.97 6.2934 392.959 6.2934 392.556 5.89644L386.987 0.428349C386.405 -0.143434 384.946 -0.143434 384.364 0.428349L378.795 5.89644C378.391 6.2934 377.38 6.2934 376.977 5.89644L371.408 0.428349C370.826 -0.143434 369.367 -0.143434 368.785 0.428349L363.216 5.89644C362.812 6.2934 361.801 6.2934 361.398 5.89644L355.829 0.428349C355.247 -0.143434 353.788 -0.143434 353.206 0.428349L347.637 5.89644C347.233 6.2934 346.222 6.2934 345.819 5.89644L340.25 0.428349C339.668 -0.143434 338.209 -0.143434 337.627 0.428349L332.058 5.89644C331.654 6.2934 330.643 6.2934 330.24 5.89644L324.671 0.428349C324.089 -0.143434 322.63 -0.143434 322.048 0.428349L316.479 5.89644C316.075 6.2934 315.064 6.2934 314.661 5.89644L309.092 0.428349C308.51 -0.143434 307.051 -0.143434 306.469 0.428349L300.9 5.89644C300.496 6.2934 299.485 6.2934 299.082 5.89644L293.513 0.428349C292.931 -0.143434 291.472 -0.143434 290.89 0.428349L285.321 5.89644C284.917 6.2934 283.906 6.2934 283.503 5.89644L277.933 0.428349C277.351 -0.143434 275.893 -0.143434 275.311 0.428349L269.742 5.89644C269.338 6.2934 268.327 6.2934 267.924 5.89644L262.354 0.428349C261.772 -0.143434 260.314 -0.143434 259.732 0.428349L254.163 5.89644C253.759 6.2934 252.748 6.2934 252.345 5.89644L246.775 0.428349C246.193 -0.143434 244.735 -0.143434 244.153 0.428349L238.584 5.89644C238.18 6.2934 237.169 6.2934 236.766 5.89644L231.196 0.428349C230.614 -0.143434 229.156 -0.143434 228.574 0.428349L223.005 5.89644C222.601 6.2934 221.59 6.2934 221.187 5.89644L215.617 0.428349C215.035 -0.143434 213.577 -0.143434 212.995 0.428349L207.426 5.89644C207.022 6.2934 206.011 6.2934 205.608 5.89644L200.038 0.428349C199.456 -0.143434 197.998 -0.143434 197.416 0.428349L191.847 5.89644C191.443 6.2934 190.432 6.2934 190.029 5.89644L184.459 0.428349C183.877 -0.143434 182.419 -0.143434 181.837 0.428349L176.268 5.89644C175.864 6.2934 174.853 6.2934 174.45 5.89644L168.88 0.428349C168.298 -0.143434 166.84 -0.143434 166.258 0.428349L160.689 5.89644C160.285 6.2934 159.274 6.2934 158.871 5.89644L153.301 0.428349C152.719 -0.143434 151.261 -0.143434 150.679 0.428349L145.11 5.89644C144.706 6.2934 143.695 6.2934 143.292 5.89644L137.722 0.428349C137.14 -0.143434 135.682 -0.143434 135.1 0.428349L129.531 5.89644C129.127 6.2934 128.116 6.2934 127.713 5.89644L122.143 0.428349C121.561 -0.143434 120.103 -0.143434 119.521 0.428349L113.951 5.89644C113.548 6.2934 112.537 6.2934 112.134 5.89644L106.564 0.428349C105.982 -0.143434 104.524 -0.143434 103.942 0.428349L98.3725 5.89644C97.969 6.2934 96.9581 6.2934 96.5546 5.89644L90.9852 0.428349C90.4033 -0.143434 88.9448 -0.143434 88.3629 0.428349L82.7934 5.89644C82.39 6.2934 81.3791 6.2934 80.9756 5.89644L75.4062 0.428349C74.8242 -0.143434 73.3658 -0.143434 72.7838 0.428349L67.2144 5.89644C66.811 6.2934 65.8 6.2934 65.3966 5.89644L59.8272 0.428349C59.2452 -0.143434 57.7868 -0.143434 57.2048 0.428349L51.6354 5.89644C51.232 6.2934 50.221 6.2934 49.8176 5.89644L44.218 0.429664C43.6361 -0.14212 42.1776 -0.14212 41.5956 0.429664L36.0262 5.89775C35.6228 6.29471 34.6119 6.29471 34.2084 5.89775L28.6367 0.428349C28.0547 -0.143434 26.5963 -0.143434 26.0143 0.428349L20.4449 5.89644C20.0415 6.2934 19.0305 6.2934 18.6271 5.89644L13.0577 0.429664C12.4757 -0.14212 11.0173 -0.14212 10.4353 0.429664L4.86588 5.89775C4.46244 6.29471 3.45151 6.29471 3.04806 5.89775L-2.52134 0.429664C-3.10332 -0.14212 -4.56175 -0.14212 -5.14373 0.429664L-11.6522 6.81918C-12.6399 7.78792 -11.4064 8.99984 -9.43092 8.99984H3.58599C3.71583 8.99984 3.84104 8.98932 3.95929 8.97355C4.07754 8.99064 4.20043 8.99984 4.3326 8.99984H19.1673C19.2972 8.99984 19.4224 8.98932 19.5406 8.97355C19.6589 8.99064 19.7818 8.99984 19.9139 8.99984H34.7487C34.8785 8.99984 35.0037 8.98932 35.122 8.97355C35.2402 8.99064 35.3631 8.99984 35.4953 8.99984H50.33C50.4599 8.99984 50.5851 8.98932 50.7033 8.97355C50.8216 8.99064 50.9445 8.99984 51.0766 8.99984H65.9113C66.0412 8.99984 66.1664 8.98932 66.2847 8.97355C66.4029 8.99064 66.5258 8.99984 66.658 8.99984H81.4927C81.6225 8.99984 81.7477 8.98932 81.866 8.97355C81.9842 8.99064 82.1071 8.99984 82.2393 8.99984H97.074C97.2039 8.99984 97.3291 8.98932 97.4473 8.97355C97.5656 8.99064 97.6885 8.99984 97.8206 8.99984H112.655C112.785 8.99984 112.91 8.98932 113.029 8.97355C113.147 8.99064 113.27 8.99984 113.402 8.99984H128.237C128.367 8.99984 128.492 8.98932 128.61 8.97355C128.728 8.99064 128.851 8.99984 128.983 8.99984H143.818C143.948 8.99984 144.073 8.98932 144.191 8.97355C144.31 8.99064 144.432 8.99984 144.565 8.99984H159.399C159.529 8.99984 159.654 8.98932 159.773 8.97355C159.891 8.99064 160.014 8.99984 160.146 8.99984H174.981C175.111 8.99984 175.236 8.98932 175.354 8.97355C175.472 8.99064 175.595 8.99984 175.727 8.99984H190.562C190.692 8.99984 190.817 8.98932 190.935 8.97355C191.054 8.99064 191.177 8.99984 191.309 8.99984H206.143C206.273 8.99984 206.398 8.98932 206.517 8.97355C206.635 8.99064 206.758 8.99984 206.89 8.99984H221.725C221.855 8.99984 221.98 8.98932 222.098 8.97355C222.216 8.99064 222.339 8.99984 222.471 8.99984H237.306C237.436 8.99984 237.561 8.98932 237.679 8.97355C237.798 8.99064 237.921 8.99984 238.053 8.99984H252.887C253.017 8.99984 253.142 8.98932 253.261 8.97355C253.379 8.99064 253.502 8.99984 253.634 8.99984H268.469C268.599 8.99984 268.724 8.98932 268.842 8.97355C268.96 8.99064 269.083 8.99984 269.215 8.99984H284.05C284.18 8.99984 284.305 8.98932 284.423 8.97355C284.542 8.99064 284.665 8.99984 284.797 8.99984H299.631C299.761 8.99984 299.886 8.98932 300.005 8.97355C300.123 8.99064 300.246 8.99984 300.378 8.99984H315.213C315.343 8.99984 315.468 8.98932 315.586 8.97355C315.704 8.99064 315.827 8.99984 315.959 8.99984H330.794C330.924 8.99984 331.049 8.98932 331.167 8.97355C331.286 8.99064 331.409 8.99984 331.541 8.99984H346.375C346.505 8.99984 346.63 8.98932 346.749 8.97355C346.867 8.99064 346.99 8.99984 347.122 8.99984H361.957C362.087 8.99984 362.212 8.98932 362.33 8.97355C362.448 8.99064 362.571 8.99984 362.703 8.99984H377.538C377.668 8.99984 377.793 8.98932 377.911 8.97355C378.03 8.99064 378.153 8.99984 378.285 8.99984H393.119C393.249 8.99984 393.375 8.98932 393.493 8.97355C393.611 8.99064 393.734 8.99984 393.866 8.99984H408.701C408.831 8.99984 408.956 8.98932 409.074 8.97355C409.192 8.99064 409.315 8.99984 409.447 8.99984H424.282C424.412 8.99984 424.537 8.98932 424.655 8.97355C424.774 8.99064 424.897 8.99984 425.029 8.99984H439.863C439.993 8.99984 440.119 8.98932 440.237 8.97355C440.355 8.99064 440.478 8.99984 440.61 8.99984H455.445C455.575 8.99984 455.7 8.98932 455.818 8.97355C455.936 8.99064 456.059 8.99984 456.191 8.99984H471.026C471.156 8.99984 471.281 8.98932 471.399 8.97355C471.518 8.99064 471.641 8.99984 471.773 8.99984H486.607C486.737 8.99984 486.863 8.98932 486.981 8.97355C487.099 8.99064 487.222 8.99984 487.354 8.99984H502.189C502.319 8.99984 502.444 8.98932 502.562 8.97355C502.68 8.99064 502.803 8.99984 502.935 8.99984H517.77C517.9 8.99984 518.025 8.98932 518.143 8.97355C518.262 8.99064 518.385 8.99984 518.517 8.99984H533.352C533.481 8.99984 533.607 8.98932 533.725 8.97355C533.843 8.99064 533.966 8.99984 534.098 8.99984H548.933C549.063 8.99984 549.188 8.98932 549.306 8.97355C549.424 8.99064 549.547 8.99984 549.679 8.99984H564.514C564.644 8.99984 564.769 8.98932 564.888 8.97355C565.006 8.99064 565.129 8.99984 565.261 8.99984H580.096C580.225 8.99984 580.351 8.98932 580.469 8.97355C580.587 8.99064 580.71 8.99984 580.842 8.99984H595.677C595.807 8.99984 595.932 8.98932 596.05 8.97355C596.168 8.99064 596.291 8.99984 596.423 8.99984H611.258C611.388 8.99984 611.513 8.98932 611.631 8.97355C611.75 8.99064 611.873 8.99984 612.005 8.99984H626.84C626.969 8.99984 627.095 8.98932 627.213 8.97355C627.331 8.99064 627.454 8.99984 627.586 8.99984H642.421C642.551 8.99984 642.676 8.98932 642.794 8.97355C642.912 8.99064 643.035 8.99984 643.167 8.99984H658.002C658.132 8.99984 658.257 8.98932 658.376 8.97355C658.494 8.99064 658.617 8.99984 658.749 8.99984H673.584C673.713 8.99984 673.839 8.98932 673.957 8.97355C674.075 8.99064 674.198 8.99984 674.33 8.99984H689.165C689.295 8.99984 689.42 8.98932 689.538 8.97355C689.656 8.99064 689.779 8.99984 689.911 8.99984H704.746C704.876 8.99984 705.001 8.98932 705.12 8.97355C705.238 8.99064 705.361 8.99984 705.493 8.99984H718.51C720.483 8.99984 721.716 7.78792 720.731 6.81918H720.655Z" fill="#093988"/>
</g>
<g clip-path="url(#clip1_16_392)">
<path d="M1452.65 6.81918L1446.15 0.428349C1445.56 -0.143434 1444.11 -0.143434 1443.52 0.428349L1437.95 5.89644C1437.55 6.2934 1436.54 6.2934 1436.14 5.89644L1430.57 0.428349C1429.99 -0.143434 1428.53 -0.143434 1427.94 0.428349L1422.38 5.89644C1421.97 6.2934 1420.96 6.2934 1420.56 5.89644L1414.99 0.428349C1414.41 -0.143434 1412.95 -0.143434 1412.37 0.428349L1406.8 5.89644C1406.39 6.2934 1405.38 6.2934 1404.98 5.89644L1399.41 0.428349C1398.83 -0.143434 1397.37 -0.143434 1396.79 0.428349L1391.22 5.89644C1390.81 6.2934 1389.8 6.2934 1389.4 5.89644L1383.83 0.428349C1383.25 -0.143434 1381.79 -0.143434 1381.21 0.428349L1375.64 5.89644C1375.23 6.2934 1374.22 6.2934 1373.82 5.89644L1368.25 0.428349C1367.67 -0.143434 1366.21 -0.143434 1365.63 0.428349L1360.06 5.89644C1359.66 6.2934 1358.64 6.2934 1358.24 5.89644L1352.67 0.428349C1352.09 -0.143434 1350.63 -0.143434 1350.05 0.428349L1344.48 5.89644C1344.08 6.2934 1343.07 6.2934 1342.66 5.89644L1337.09 0.428349C1336.51 -0.143434 1335.05 -0.143434 1334.47 0.428349L1328.9 5.89644C1328.5 6.2934 1327.49 6.2934 1327.08 5.89644L1321.51 0.428349C1320.93 -0.143434 1319.47 -0.143434 1318.89 0.428349L1313.32 5.89644C1312.92 6.2934 1311.91 6.2934 1311.5 5.89644L1305.93 0.428349C1305.35 -0.143434 1303.89 -0.143434 1303.31 0.428349L1297.74 5.89644C1297.34 6.2934 1296.33 6.2934 1295.93 5.89644L1290.36 0.428349C1289.77 -0.143434 1288.32 -0.143434 1287.73 0.428349L1282.16 5.89644C1281.76 6.2934 1280.75 6.2934 1280.35 5.89644L1274.78 0.428349C1274.19 -0.143434 1272.74 -0.143434 1272.15 0.428349L1266.59 5.89644C1266.18 6.2934 1265.17 6.2934 1264.77 5.89644L1259.2 0.428349C1258.62 -0.143434 1257.16 -0.143434 1256.58 0.428349L1251.01 5.89644C1250.6 6.2934 1249.59 6.2934 1249.19 5.89644L1243.62 0.428349C1243.04 -0.143434 1241.58 -0.143434 1241 0.428349L1235.43 5.89644C1235.02 6.2934 1234.01 6.2934 1233.61 5.89644L1228.04 0.428349C1227.46 -0.143434 1226 -0.143434 1225.42 0.428349L1219.85 5.89644C1219.44 6.2934 1218.43 6.2934 1218.03 5.89644L1212.46 0.428349C1211.88 -0.143434 1210.42 -0.143434 1209.84 0.428349L1204.27 5.89644C1203.87 6.2934 1202.85 6.2934 1202.45 5.89644L1196.88 0.428349C1196.3 -0.143434 1194.84 -0.143434 1194.26 0.428349L1188.69 5.89644C1188.29 6.2934 1187.28 6.2934 1186.87 5.89644L1181.3 0.428349C1180.72 -0.143434 1179.26 -0.143434 1178.68 0.428349L1173.11 5.89644C1172.71 6.2934 1171.7 6.2934 1171.29 5.89644L1165.72 0.428349C1165.14 -0.143434 1163.68 -0.143434 1163.1 0.428349L1157.53 5.89644C1157.13 6.2934 1156.12 6.2934 1155.71 5.89644L1150.14 0.428349C1149.56 -0.143434 1148.1 -0.143434 1147.52 0.428349L1141.95 5.89644C1141.55 6.2934 1140.54 6.2934 1140.14 5.89644L1134.57 0.428349C1133.98 -0.143434 1132.53 -0.143434 1131.94 0.428349L1126.37 5.89644C1125.97 6.2934 1124.96 6.2934 1124.56 5.89644L1118.99 0.428349C1118.4 -0.143434 1116.95 -0.143434 1116.36 0.428349L1110.79 5.89644C1110.39 6.2934 1109.38 6.2934 1108.98 5.89644L1103.41 0.428349C1102.83 -0.143434 1101.37 -0.143434 1100.79 0.428349L1095.22 5.89644C1094.81 6.2934 1093.8 6.2934 1093.4 5.89644L1087.83 0.428349C1087.25 -0.143434 1085.79 -0.143434 1085.21 0.428349L1079.64 5.89644C1079.23 6.2934 1078.22 6.2934 1077.82 5.89644L1072.25 0.428349C1071.67 -0.143434 1070.21 -0.143434 1069.63 0.428349L1064.06 5.89644C1063.65 6.2934 1062.64 6.2934 1062.24 5.89644L1056.67 0.428349C1056.09 -0.143434 1054.63 -0.143434 1054.05 0.428349L1048.48 5.89644C1048.08 6.2934 1047.06 6.2934 1046.66 5.89644L1041.09 0.428349C1040.51 -0.143434 1039.05 -0.143434 1038.47 0.428349L1032.9 5.89644C1032.5 6.2934 1031.49 6.2934 1031.08 5.89644L1025.51 0.428349C1024.93 -0.143434 1023.47 -0.143434 1022.89 0.428349L1017.32 5.89644C1016.92 6.2934 1015.91 6.2934 1015.5 5.89644L1009.93 0.428349C1009.35 -0.143434 1007.89 -0.143434 1007.31 0.428349L1001.74 5.89644C1001.34 6.2934 1000.33 6.2934 999.924 5.89644L994.354 0.428349C993.772 -0.143434 992.314 -0.143434 991.732 0.428349L986.163 5.89644C985.759 6.2934 984.748 6.2934 984.345 5.89644L978.775 0.428349C978.193 -0.143434 976.735 -0.143434 976.153 0.428349L970.584 5.89644C970.18 6.2934 969.169 6.2934 968.766 5.89644L963.196 0.428349C962.614 -0.143434 961.156 -0.143434 960.574 0.428349L955.005 5.89644C954.601 6.2934 953.59 6.2934 953.187 5.89644L947.617 0.428349C947.035 -0.143434 945.577 -0.143434 944.995 0.428349L939.426 5.89644C939.022 6.2934 938.011 6.2934 937.608 5.89644L932.038 0.428349C931.456 -0.143434 929.998 -0.143434 929.416 0.428349L923.847 5.89644C923.443 6.2934 922.432 6.2934 922.029 5.89644L916.459 0.428349C915.877 -0.143434 914.419 -0.143434 913.837 0.428349L908.268 5.89644C907.864 6.2934 906.853 6.2934 906.45 5.89644L900.88 0.428349C900.298 -0.143434 898.84 -0.143434 898.258 0.428349L892.689 5.89644C892.285 6.2934 891.274 6.2934 890.871 5.89644L885.301 0.428349C884.719 -0.143434 883.261 -0.143434 882.679 0.428349L877.11 5.89644C876.706 6.2934 875.695 6.2934 875.292 5.89644L869.722 0.428349C869.14 -0.143434 867.682 -0.143434 867.1 0.428349L861.531 5.89644C861.127 6.2934 860.116 6.2934 859.713 5.89644L854.143 0.428349C853.561 -0.143434 852.103 -0.143434 851.521 0.428349L845.951 5.89644C845.548 6.2934 844.537 6.2934 844.134 5.89644L838.564 0.428349C837.982 -0.143434 836.524 -0.143434 835.942 0.428349L830.372 5.89644C829.969 6.2934 828.958 6.2934 828.555 5.89644L822.985 0.428349C822.403 -0.143434 820.945 -0.143434 820.363 0.428349L814.793 5.89644C814.39 6.2934 813.379 6.2934 812.976 5.89644L807.406 0.428349C806.824 -0.143434 805.366 -0.143434 804.784 0.428349L799.214 5.89644C798.811 6.2934 797.8 6.2934 797.397 5.89644L791.827 0.428349C791.245 -0.143434 789.787 -0.143434 789.205 0.428349L783.635 5.89644C783.232 6.2934 782.221 6.2934 781.818 5.89644L776.218 0.429664C775.636 -0.14212 774.178 -0.14212 773.596 0.429664L768.026 5.89775C767.623 6.29471 766.612 6.29471 766.208 5.89775L760.637 0.428349C760.055 -0.143434 758.596 -0.143434 758.014 0.428349L752.445 5.89644C752.041 6.2934 751.031 6.2934 750.627 5.89644L745.058 0.429664C744.476 -0.14212 743.017 -0.14212 742.435 0.429664L736.866 5.89775C736.462 6.29471 735.452 6.29471 735.048 5.89775L729.479 0.429664C728.897 -0.14212 727.438 -0.14212 726.856 0.429664L720.348 6.81918C719.36 7.78792 720.594 8.99984 722.569 8.99984H735.586C735.716 8.99984 735.841 8.98932 735.959 8.97355C736.078 8.99064 736.2 8.99984 736.333 8.99984H751.167C751.297 8.99984 751.422 8.98932 751.541 8.97355C751.659 8.99064 751.782 8.99984 751.914 8.99984H766.749C766.879 8.99984 767.004 8.98932 767.122 8.97355C767.24 8.99064 767.363 8.99984 767.495 8.99984H782.33C782.46 8.99984 782.585 8.98932 782.703 8.97355C782.822 8.99064 782.944 8.99984 783.077 8.99984H797.911C798.041 8.99984 798.166 8.98932 798.285 8.97355C798.403 8.99064 798.526 8.99984 798.658 8.99984H813.493C813.623 8.99984 813.748 8.98932 813.866 8.97355C813.984 8.99064 814.107 8.99984 814.239 8.99984H829.074C829.204 8.99984 829.329 8.98932 829.447 8.97355C829.566 8.99064 829.688 8.99984 829.821 8.99984H844.655C844.785 8.99984 844.91 8.98932 845.029 8.97355C845.147 8.99064 845.27 8.99984 845.402 8.99984H860.237C860.367 8.99984 860.492 8.98932 860.61 8.97355C860.728 8.99064 860.851 8.99984 860.983 8.99984H875.818C875.948 8.99984 876.073 8.98932 876.191 8.97355C876.31 8.99064 876.432 8.99984 876.565 8.99984H891.399C891.529 8.99984 891.654 8.98932 891.773 8.97355C891.891 8.99064 892.014 8.99984 892.146 8.99984H906.981C907.111 8.99984 907.236 8.98932 907.354 8.97355C907.472 8.99064 907.595 8.99984 907.727 8.99984H922.562C922.692 8.99984 922.817 8.98932 922.935 8.97355C923.054 8.99064 923.177 8.99984 923.309 8.99984H938.143C938.273 8.99984 938.398 8.98932 938.517 8.97355C938.635 8.99064 938.758 8.99984 938.89 8.99984H953.725C953.855 8.99984 953.98 8.98932 954.098 8.97355C954.216 8.99064 954.339 8.99984 954.471 8.99984H969.306C969.436 8.99984 969.561 8.98932 969.679 8.97355C969.798 8.99064 969.921 8.99984 970.053 8.99984H984.887C985.017 8.99984 985.142 8.98932 985.261 8.97355C985.379 8.99064 985.502 8.99984 985.634 8.99984H1000.47C1000.6 8.99984 1000.72 8.98932 1000.84 8.97355C1000.96 8.99064 1001.08 8.99984 1001.22 8.99984H1016.05C1016.18 8.99984 1016.31 8.98932 1016.42 8.97355C1016.54 8.99064 1016.66 8.99984 1016.8 8.99984H1031.63C1031.76 8.99984 1031.89 8.98932 1032 8.97355C1032.12 8.99064 1032.25 8.99984 1032.38 8.99984H1047.21C1047.34 8.99984 1047.47 8.98932 1047.59 8.97355C1047.7 8.99064 1047.83 8.99984 1047.96 8.99984H1062.79C1062.92 8.99984 1063.05 8.98932 1063.17 8.97355C1063.29 8.99064 1063.41 8.99984 1063.54 8.99984H1078.38C1078.51 8.99984 1078.63 8.98932 1078.75 8.97355C1078.87 8.99064 1078.99 8.99984 1079.12 8.99984H1093.96C1094.09 8.99984 1094.21 8.98932 1094.33 8.97355C1094.45 8.99064 1094.57 8.99984 1094.7 8.99984H1109.54C1109.67 8.99984 1109.79 8.98932 1109.91 8.97355C1110.03 8.99064 1110.15 8.99984 1110.28 8.99984H1125.12C1125.25 8.99984 1125.37 8.98932 1125.49 8.97355C1125.61 8.99064 1125.73 8.99984 1125.87 8.99984H1140.7C1140.83 8.99984 1140.96 8.98932 1141.07 8.97355C1141.19 8.99064 1141.32 8.99984 1141.45 8.99984H1156.28C1156.41 8.99984 1156.54 8.98932 1156.66 8.97355C1156.77 8.99064 1156.9 8.99984 1157.03 8.99984H1171.86C1171.99 8.99984 1172.12 8.98932 1172.24 8.97355C1172.36 8.99064 1172.48 8.99984 1172.61 8.99984H1187.44C1187.57 8.99984 1187.7 8.98932 1187.82 8.97355C1187.94 8.99064 1188.06 8.99984 1188.19 8.99984H1203.03C1203.16 8.99984 1203.28 8.98932 1203.4 8.97355C1203.52 8.99064 1203.64 8.99984 1203.77 8.99984H1218.61C1218.74 8.99984 1218.86 8.98932 1218.98 8.97355C1219.1 8.99064 1219.22 8.99984 1219.35 8.99984H1234.19C1234.32 8.99984 1234.44 8.98932 1234.56 8.97355C1234.68 8.99064 1234.8 8.99984 1234.94 8.99984H1249.77C1249.9 8.99984 1250.03 8.98932 1250.14 8.97355C1250.26 8.99064 1250.38 8.99984 1250.52 8.99984H1265.35C1265.48 8.99984 1265.61 8.98932 1265.72 8.97355C1265.84 8.99064 1265.97 8.99984 1266.1 8.99984H1280.93C1281.06 8.99984 1281.19 8.98932 1281.31 8.97355C1281.42 8.99064 1281.55 8.99984 1281.68 8.99984H1296.51C1296.64 8.99984 1296.77 8.98932 1296.89 8.97355C1297.01 8.99064 1297.13 8.99984 1297.26 8.99984H1312.1C1312.23 8.99984 1312.35 8.98932 1312.47 8.97355C1312.59 8.99064 1312.71 8.99984 1312.84 8.99984H1327.68C1327.81 8.99984 1327.93 8.98932 1328.05 8.97355C1328.17 8.99064 1328.29 8.99984 1328.42 8.99984H1343.26C1343.39 8.99984 1343.51 8.98932 1343.63 8.97355C1343.75 8.99064 1343.87 8.99984 1344 8.99984H1358.84C1358.97 8.99984 1359.09 8.98932 1359.21 8.97355C1359.33 8.99064 1359.45 8.99984 1359.59 8.99984H1374.42C1374.55 8.99984 1374.68 8.98932 1374.79 8.97355C1374.91 8.99064 1375.04 8.99984 1375.17 8.99984H1390C1390.13 8.99984 1390.26 8.98932 1390.38 8.97355C1390.49 8.99064 1390.62 8.99984 1390.75 8.99984H1405.58C1405.71 8.99984 1405.84 8.98932 1405.96 8.97355C1406.08 8.99064 1406.2 8.99984 1406.33 8.99984H1421.16C1421.29 8.99984 1421.42 8.98932 1421.54 8.97355C1421.66 8.99064 1421.78 8.99984 1421.91 8.99984H1436.75C1436.88 8.99984 1437 8.98932 1437.12 8.97355C1437.24 8.99064 1437.36 8.99984 1437.49 8.99984H1450.51C1452.48 8.99984 1453.72 7.78792 1452.73 6.81918H1452.65Z" fill="#093988"/>
</g>
<defs>
<clipPath id="clip0_16_392">
<rect width="733" height="9" fill="white" transform="translate(-12)"/>
</clipPath>
<clipPath id="clip1_16_392">
<rect width="733" height="9" fill="white" transform="translate(720)"/>
</clipPath>
</defs>
</svg>
